<svg width="303" height="347" viewBox="0 0 303 347" fill="none" xmlns="http://www.w3.org/2000/svg">
<path d="M301.027 301.231C302.803 302.558 303.691 305.212 302.359 306.981C287.263 331.31 246.86 360.504 207.788 340.157C195.801 334.406 186.477 325.56 178.041 315.828C168.717 317.598 158.949 318.924 149.181 318.924C66.5988 318.924 0 247.266 0 159.241C0 71.6585 66.5988 0 149.181 0C231.764 0 298.363 71.6585 298.363 159.241C298.363 219.399 267.283 271.595 221.552 298.577C227.768 304.77 233.984 310.078 241.088 314.059C259.735 323.348 285.931 316.27 295.699 302.558C297.031 300.789 298.807 300.346 300.583 301.231H301.027ZM149.181 310.52C157.173 310.52 164.721 309.635 171.825 307.866C148.293 274.691 135.418 231.342 100.786 213.648C81.6946 203.917 58.607 213.648 49.7271 228.246C66.1548 275.133 99.8982 310.52 149.181 310.52ZM211.784 286.192C242.864 258.324 259.291 209.225 259.291 159.241C259.291 83.1592 220.664 7.96206 149.181 7.96206C77.2546 7.96206 38.6273 83.1592 38.6273 159.241C38.6273 179.589 41.2913 199.936 46.6192 218.514C62.6029 194.186 95.0143 167.203 130.534 185.339C171.381 206.129 188.253 253.901 211.784 286.192Z" fill="#C68951"/>
</svg>
