<svg width="512" height="512" viewBox="0 0 512 512" fill="none" xmlns="http://www.w3.org/2000/svg">
<path d="M429.714 404.845C431.771 406.386 432.8 409.468 431.257 411.523C413.77 439.778 366.966 473.683 321.705 450.052C307.818 443.374 297.018 433.099 287.245 421.798C276.444 423.852 265.129 425.394 253.814 425.394C158.149 425.394 81 342.171 81 239.94C81 138.223 158.149 55 253.814 55C349.479 55 426.628 138.223 426.628 239.94C426.628 309.806 390.625 370.425 337.649 401.762C344.85 408.954 352.051 415.119 360.28 419.743C381.882 430.531 412.227 422.311 423.542 406.386C425.085 404.331 427.142 403.817 429.2 404.845H429.714ZM253.814 415.633C263.072 415.633 271.816 414.605 280.045 412.551C252.785 374.021 237.87 323.677 197.752 303.128C175.636 291.826 148.891 303.128 138.605 320.081C157.635 374.535 196.724 415.633 253.814 415.633ZM326.334 387.378C362.337 355.014 381.367 297.991 381.367 239.94C381.367 151.58 336.621 64.247 253.814 64.247C170.493 64.247 125.746 151.58 125.746 239.94C125.746 263.571 128.832 287.202 135.004 308.779C153.52 280.524 191.066 249.187 232.212 270.25C279.53 294.394 299.075 349.876 326.334 387.378Z" fill="#C68951"/>
</svg>

